<svg width="10" height="10" viewBox="0 0 10 10" fill="none" xmlns="http://www.w3.org/2000/svg">
<g clip-path="url(#clip0_1_5677)">
<path d="M2.08317 5.83334C2.31329 5.83334 2.49984 5.64679 2.49984 5.41667C2.49984 5.18655 2.31329 5 2.08317 5C1.85305 5 1.6665 5.18655 1.6665 5.41667C1.6665 5.64679 1.85305 5.83334 2.08317 5.83334Z" fill="white"/>
<path d="M0.416667 4.16683C0.646785 4.16683 0.833333 3.98028 0.833333 3.75016C0.833333 3.52004 0.646785 3.3335 0.416667 3.3335C0.186548 3.3335 0 3.52004 0 3.75016C0 3.98028 0.186548 4.16683 0.416667 4.16683Z" fill="white"/>
<path d="M2.08317 2.49984C2.31329 2.49984 2.49984 2.31329 2.49984 2.08317C2.49984 1.85305 2.31329 1.6665 2.08317 1.6665C1.85305 1.6665 1.6665 1.85305 1.6665 2.08317C1.6665 2.31329 1.85305 2.49984 2.08317 2.49984Z" fill="white"/>
<path d="M0.416667 0.833333C0.646785 0.833333 0.833333 0.646785 0.833333 0.416667C0.833333 0.186548 0.646785 0 0.416667 0C0.186548 0 0 0.186548 0 0.416667C0 0.646785 0.186548 0.833333 0.416667 0.833333Z" fill="white"/>
<path d="M9.58317 5.83334C9.81328 5.83334 9.99983 5.64679 9.99983 5.41667C9.99983 5.18655 9.81328 5 9.58317 5C9.35305 5 9.1665 5.18655 9.1665 5.41667C9.1665 5.64679 9.35305 5.83334 9.58317 5.83334Z" fill="white"/>
<path d="M7.91667 4.16683C8.14679 4.16683 8.33334 3.98028 8.33334 3.75016C8.33334 3.52004 8.14679 3.3335 7.91667 3.3335C7.68655 3.3335 7.5 3.52004 7.5 3.75016C7.5 3.98028 7.68655 4.16683 7.91667 4.16683Z" fill="white"/>
<path d="M9.58317 2.49984C9.81328 2.49984 9.99983 2.31329 9.99983 2.08317C9.99983 1.85305 9.81328 1.6665 9.58317 1.6665C9.35305 1.6665 9.1665 1.85305 9.1665 2.08317C9.1665 2.31329 9.35305 2.49984 9.58317 2.49984Z" fill="white"/>
<path d="M7.91667 0.833333C8.14679 0.833333 8.33334 0.646785 8.33334 0.416667C8.33334 0.186548 8.14679 0 7.91667 0C7.68655 0 7.5 0.186548 7.5 0.416667C7.5 0.646785 7.68655 0.833333 7.91667 0.833333Z" fill="white"/>
<path d="M5.83317 9.99983C6.06329 9.99983 6.24984 9.81328 6.24984 9.58317C6.24984 9.35305 6.06329 9.1665 5.83317 9.1665C5.60305 9.1665 5.4165 9.35305 5.4165 9.58317C5.4165 9.81328 5.60305 9.99983 5.83317 9.99983Z" fill="white"/>
<path d="M4.16667 8.33334C4.39678 8.33334 4.58333 8.14679 4.58333 7.91667C4.58333 7.68655 4.39678 7.5 4.16667 7.5C3.93655 7.5 3.75 7.68655 3.75 7.91667C3.75 8.14679 3.93655 8.33334 4.16667 8.33334Z" fill="white"/>
<path d="M5.83317 6.66683C6.06329 6.66683 6.24984 6.48029 6.24984 6.25017C6.24984 6.02005 6.06329 5.8335 5.83317 5.8335C5.60305 5.8335 5.4165 6.02005 5.4165 6.25017C5.4165 6.48029 5.60305 6.66683 5.83317 6.66683Z" fill="white"/>
<path d="M4.16667 4.99984C4.39678 4.99984 4.58333 4.81329 4.58333 4.58317C4.58333 4.35305 4.39678 4.1665 4.16667 4.1665C3.93655 4.1665 3.75 4.35305 3.75 4.58317C3.75 4.81329 3.93655 4.99984 4.16667 4.99984Z" fill="white"/>
<path d="M6.25016 1.25C6.02914 1.25 5.81718 1.1622 5.6609 1.00592C5.50462 0.849642 5.41683 0.63768 5.41683 0.416667C5.41683 0.30616 5.37293 0.200179 5.29479 0.122039C5.21665 0.0438987 5.11067 0 5.00016 0C4.88965 0 4.78367 0.0438987 4.70553 0.122039C4.62739 0.200179 4.58349 0.30616 4.58349 0.416667C4.58349 0.63768 4.4957 0.849642 4.33942 1.00592C4.18314 1.1622 3.97118 1.25 3.75016 1.25C3.63966 1.25 3.53367 1.2939 3.45553 1.37204C3.37739 1.45018 3.3335 1.55616 3.3335 1.66667C3.3335 1.77717 3.37739 1.88315 3.45553 1.96129C3.53367 2.03943 3.63966 2.08333 3.75016 2.08333C3.97118 2.08333 4.18314 2.17113 4.33942 2.32741C4.4957 2.48369 4.58349 2.69565 4.58349 2.91667C4.58349 3.02717 4.62739 3.13315 4.70553 3.21129C4.78367 3.28943 4.88965 3.33333 5.00016 3.33333C5.11067 3.33333 5.21665 3.28943 5.29479 3.21129C5.37293 3.13315 5.41683 3.02717 5.41683 2.91667C5.41683 2.69565 5.50462 2.48369 5.6609 2.32741C5.81718 2.17113 6.02914 2.08333 6.25016 2.08333C6.36066 2.08333 6.46664 2.03943 6.54478 1.96129C6.62292 1.88315 6.66682 1.77717 6.66682 1.66667C6.66682 1.55616 6.62292 1.45018 6.54478 1.37204C6.46664 1.2939 6.36066 1.25 6.25016 1.25Z" fill="white"/>
<path d="M2.91667 7.9165C2.69565 7.9165 2.48369 7.8287 2.32741 7.67242C2.17113 7.51614 2.08333 7.30418 2.08333 7.08317C2.08333 6.97266 2.03943 6.86668 1.96129 6.78854C1.88315 6.7104 1.77717 6.6665 1.66667 6.6665C1.55616 6.6665 1.45018 6.7104 1.37204 6.78854C1.2939 6.86668 1.25 6.97266 1.25 7.08317C1.25 7.30418 1.1622 7.51614 1.00592 7.67242C0.849642 7.8287 0.63768 7.9165 0.416667 7.9165C0.30616 7.9165 0.200179 7.9604 0.122039 8.03854C0.0438987 8.11668 0 8.22266 0 8.33317C0 8.44367 0.0438987 8.54965 0.122039 8.62779C0.200179 8.70594 0.30616 8.74983 0.416667 8.74983C0.63768 8.74983 0.849642 8.83763 1.00592 8.99391C1.1622 9.15019 1.25 9.36215 1.25 9.58316C1.25 9.69367 1.2939 9.79965 1.37204 9.87779C1.45018 9.95593 1.55616 9.99983 1.66667 9.99983C1.77717 9.99983 1.88315 9.95593 1.96129 9.87779C2.03943 9.79965 2.08333 9.69367 2.08333 9.58316C2.08333 9.36215 2.17113 9.15019 2.32741 8.99391C2.48369 8.83763 2.69565 8.74983 2.91667 8.74983C3.02717 8.74983 3.13315 8.70594 3.21129 8.62779C3.28943 8.54965 3.33333 8.44367 3.33333 8.33317C3.33333 8.22266 3.28943 8.11668 3.21129 8.03854C3.13315 7.9604 3.02717 7.9165 2.91667 7.9165Z" fill="white"/>
<path d="M9.58316 7.9165C9.36215 7.9165 9.15019 7.8287 8.99391 7.67242C8.83763 7.51614 8.74983 7.30418 8.74983 7.08317C8.74983 6.97266 8.70594 6.86668 8.62779 6.78854C8.54965 6.7104 8.44367 6.6665 8.33317 6.6665C8.22266 6.6665 8.11668 6.7104 8.03854 6.78854C7.9604 6.86668 7.9165 6.97266 7.9165 7.08317C7.9165 7.30418 7.8287 7.51614 7.67242 7.67242C7.51614 7.8287 7.30418 7.9165 7.08317 7.9165C6.97266 7.9165 6.86668 7.9604 6.78854 8.03854C6.7104 8.11668 6.6665 8.22266 6.6665 8.33317C6.6665 8.44367 6.7104 8.54965 6.78854 8.62779C6.86668 8.70594 6.97266 8.74983 7.08317 8.74983C7.30418 8.74983 7.51614 8.83763 7.67242 8.99391C7.8287 9.15019 7.9165 9.36215 7.9165 9.58316C7.9165 9.69367 7.9604 9.79965 8.03854 9.87779C8.11668 9.95593 8.22266 9.99983 8.33317 9.99983C8.44367 9.99983 8.54965 9.95593 8.62779 9.87779C8.70594 9.79965 8.74983 9.69367 8.74983 9.58316C8.74983 9.36215 8.83763 9.15019 8.99391 8.99391C9.15019 8.83763 9.36215 8.74983 9.58316 8.74983C9.69367 8.74983 9.79965 8.70594 9.87779 8.62779C9.95593 8.54965 9.99983 8.44367 9.99983 8.33317C9.99983 8.22266 9.95593 8.11668 9.87779 8.03854C9.79965 7.9604 9.69367 7.9165 9.58316 7.9165Z" fill="white"/>
</g>
<defs>
<clipPath id="clip0_1_5677">
<rect width="10" height="10" fill="white"/>
</clipPath>
</defs>
</svg>
