<svg width="10" height="10" viewBox="0 0 10 10" fill="none" xmlns="http://www.w3.org/2000/svg">
<g clip-path="url(#clip0_1_5675)">
<path d="M5.5575 0.347249C5.40448 0.209514 5.20588 0.133301 5 0.133301C4.79412 0.133301 4.59552 0.209514 4.4425 0.347249L0 4.34558V8.67892C0 9.03254 0.140476 9.37168 0.390524 9.62173C0.640573 9.87177 0.979711 10.0122 1.33333 10.0122H8.66667C9.02029 10.0122 9.35943 9.87177 9.60948 9.62173C9.85952 9.37168 10 9.03254 10 8.67892V4.34558L5.5575 0.347249ZM6.25 9.17767H3.75V7.0835C3.75 6.75198 3.8817 6.43404 4.11612 6.19962C4.35054 5.9652 4.66848 5.8335 5 5.8335C5.33152 5.8335 5.64946 5.9652 5.88388 6.19962C6.1183 6.43404 6.25 6.75198 6.25 7.0835V9.17767ZM9.16667 8.67767C9.16667 8.81028 9.11399 8.93745 9.02022 9.03122C8.92645 9.12499 8.79927 9.17767 8.66667 9.17767H7.08333V7.0835C7.08333 6.53097 6.86384 6.00106 6.47314 5.61036C6.08244 5.21966 5.55253 5.00017 5 5.00017C4.44747 5.00017 3.91756 5.21966 3.52686 5.61036C3.13616 6.00106 2.91667 6.53097 2.91667 7.0835V9.17767H1.33333C1.20073 9.17767 1.07355 9.12499 0.97978 9.03122C0.886012 8.93745 0.833333 8.81028 0.833333 8.67767V4.71642L5 0.966416L9.16667 4.71642V8.67767Z" fill="white"/>
</g>
<defs>
<clipPath id="clip0_1_5675">
<rect width="10" height="10" fill="white"/>
</clipPath>
</defs>
</svg>
